<?xml version="1.0"?>
<!DOCTYPE svg PUBLIC "-//W3C//DTD SVG 1.1//EN" "http://www.w3.org/Graphics/SVG/1.1/DTD/svg11.dtd">
<svg xmlns="http://www.w3.org/2000/svg" xmlns:xl="http://www.w3.org/1999/xlink" version="1.1" viewBox="57.43336 98.43336 47.13328 53.13328" width="47.13328pt" height="53.13328pt"><metadata xmlns:dc="http://purl.org/dc/elements/1.1/"><dc:date>2015-06-24 11:36Z</dc:date><!-- Produced by OmniGraffle Professional 5.4.4 --></metadata><defs><filter id="Shadow" filterUnits="userSpaceOnUse"><feGaussianBlur in="SourceAlpha" result="blur" stdDeviation="3.488"/><feOffset in="blur" result="offset" dx="0" dy="4"/><feFlood flood-color="black" flood-opacity=".75" result="flood"/><feComposite in="flood" in2="offset" operator="in"/></filter></defs><g stroke="none" stroke-opacity="1" stroke-dasharray="none" fill="none" fill-opacity="1"><title>Canvas 2</title><g><title>Layer 1</title><g><use xl:href="#id6_Graphic" filter="url(#Shadow)"/></g><g id="id6_Graphic"><path d="M 69.75 133 L 69.75 109 C 69.75 107.344 74.79 106 81 106 C 87.21 106 92.25 107.344 92.25 109 L 92.25 133 C 92.25 134.656 87.21 136 81 136 C 74.79 136 69.75 134.656 69.75 133" fill="white"/><path d="M 69.75 133 L 69.75 109 C 69.75 107.344 74.79 106 81 106 C 87.21 106 92.25 107.344 92.25 109 L 92.25 133 C 92.25 134.656 87.21 136 81 136 C 74.79 136 69.75 134.656 69.75 133 M 69.75 109 C 69.75 110.656 74.79 112 81 112 C 87.21 112 92.25 110.656 92.25 109" stroke="black" stroke-linecap="round" stroke-linejoin="round" stroke-width="1"/></g></g></g></svg>
