<?xml version="1.0"?>
<!DOCTYPE svg PUBLIC "-//W3C//DTD SVG 1.1//EN" "http://www.w3.org/Graphics/SVG/1.1/DTD/svg11.dtd">
<svg xmlns="http://www.w3.org/2000/svg" xmlns:xl="http://www.w3.org/1999/xlink" version="1.1" viewBox="315.43336 460.43336 86.13328 82.13328" width="86.13328pt" height="82.13328pt"><metadata xmlns:dc="http://purl.org/dc/elements/1.1/"><dc:date>2015-06-24 11:45Z</dc:date><!-- Produced by OmniGraffle Professional 5.4.4 --></metadata><defs><marker orient="auto" overflow="visible" markerUnits="strokeWidth" id="FilledArrow_Marker" viewBox="-1 -3 6 6" markerWidth="6" markerHeight="6" color="black"><g><path d="M 4 0 L 0 -1.5 L 0 1.5 Z" fill="currentColor" stroke="currentColor" stroke-width="1"/></g></marker></defs><g stroke="none" stroke-opacity="1" stroke-dasharray="none" fill="none" fill-opacity="1"><title>Canvas 2</title><g><title>Layer 1</title><ellipse cx="358.5" cy="501.5" rx="40.500065" ry="38.50006" fill="white"/><path d="M 387.1378 474.27642 C 402.9541 489.3116 402.9541 513.6884 387.1378 528.72358 C 371.32157 543.75883 345.67843 543.75883 329.8622 528.72358 C 314.0459 513.6884 314.0459 489.3116 329.8622 474.27642 C 345.67843 459.24117 371.32157 459.24117 387.1378 474.27642" stroke="black" stroke-linecap="round" stroke-linejoin="round" stroke-width="1" stroke-dasharray="20,5,4,5"/><circle cx="333.78368" cy="501.2837" r="3.2837174" fill="black"/><circle cx="333.78368" cy="501.2837" r="3.2837174" stroke="black" stroke-linecap="round" stroke-linejoin="round" stroke-width="1"/><circle cx="345.80198" cy="525.73455" r="3.2837174" fill="white"/><circle cx="345.80198" cy="525.73455" r="3.2837174" stroke="#7c7c7c" stroke-linecap="round" stroke-linejoin="round" stroke-width="1"/><circle cx="371.83712" cy="525.73455" r="3.2837174" fill="white"/><circle cx="371.83712" cy="525.73455" r="3.2837174" stroke="#7c7c7c" stroke-linecap="round" stroke-linejoin="round" stroke-width="1"/><line x1="368.0534" y1="525.73456" x2="355.48569" y2="525.73456" marker-end="url(#FilledArrow_Marker)" stroke="black" stroke-linecap="round" stroke-linejoin="round" stroke-width="1"/><circle cx="343.68116" cy="479.1854" r="3.2837174" fill="white"/><circle cx="343.68116" cy="479.1854" r="3.2837174" stroke="#7c7c7c" stroke-linecap="round" stroke-linejoin="round" stroke-width="1"/><circle cx="369.7163" cy="479.1854" r="3.2837174" fill="white"/><circle cx="369.7163" cy="479.1854" r="3.2837174" stroke="#7c7c7c" stroke-linecap="round" stroke-linejoin="round" stroke-width="1"/><line x1="365.93259" y1="479.1854" x2="353.36487" y2="479.1854" marker-end="url(#FilledArrow_Marker)" stroke="black" stroke-linecap="round" stroke-linejoin="round" stroke-width="1"/><line x1="342.13217" y1="482.63848" x2="337.73466" y2="492.4417" marker-end="url(#FilledArrow_Marker)" stroke="black" stroke-linecap="round" stroke-linejoin="round" stroke-width="1"/><circle cx="358.28371" cy="501.2837" r="3.2837174" fill="black"/><circle cx="358.28371" cy="501.2837" r="3.2837174" stroke="black" stroke-linecap="round" stroke-linejoin="round" stroke-width="1"/><circle cx="389.28371" cy="501.2837" r="3.2837174" fill="black"/><circle cx="389.28371" cy="501.2837" r="3.2837174" stroke="black" stroke-linecap="round" stroke-linejoin="round" stroke-width="1"/><line x1="385.5" y1="501.28372" x2="367.96743" y2="501.28372" marker-end="url(#FilledArrow_Marker)" stroke="black" stroke-linecap="round" stroke-linejoin="round" stroke-width="1"/><line x1="360.11813" y1="504.59397" x2="367.1401" y2="517.26528" marker-end="url(#FilledArrow_Marker)" stroke="black" stroke-linecap="round" stroke-linejoin="round" stroke-width="1"/><line x1="356.19691" y1="498.12672" x2="349.01818" y2="487.26641" marker-end="url(#FilledArrow_Marker)" stroke="black" stroke-linecap="round" stroke-linejoin="round" stroke-width="1"/></g></g></svg>
