<?xml version="1.0"?>
<!DOCTYPE svg PUBLIC "-//W3C//DTD SVG 1.1//EN" "http://www.w3.org/Graphics/SVG/1.1/DTD/svg11.dtd">
<svg xmlns="http://www.w3.org/2000/svg" xmlns:xl="http://www.w3.org/1999/xlink" version="1.1" viewBox="79.43336 32.43336 108.13328 108.13328" width="108.13328pt" height="108.13328pt"><metadata xmlns:dc="http://purl.org/dc/elements/1.1/"><dc:date>2015-06-24 12:28Z</dc:date><!-- Produced by OmniGraffle Professional 5.4.4 --></metadata><defs><marker orient="auto" overflow="visible" markerUnits="strokeWidth" id="FilledArrow_Marker" viewBox="-1 -3 6 6" markerWidth="6" markerHeight="6" color="black"><g><path d="M 4 0 L 0 -1.5 L 0 1.5 Z" fill="currentColor" stroke="currentColor" stroke-width="1"/></g></marker></defs><g stroke="none" stroke-opacity="1" stroke-dasharray="none" fill="none" fill-opacity="1"><title>Canvas 5</title><g><title>Layer 1</title><path d="M 169.78082 85.713465 C 169.57377 105.66479 153.23219 122.00637 133.28086 122.213425 C 113.32954 122.42058 97.323745 106.41479 97.530903 86.463465 C 97.73796 66.512142 114.07954 50.17056 134.03086 49.963505 C 153.98219 49.756347 169.98798 65.762142 169.78082 85.713465" fill="white" fill-opacity=".30000001"/><path d="M 169.78082 85.713465 C 169.57377 105.66479 153.23219 122.00637 133.28086 122.213425 C 113.32954 122.42058 97.323745 106.41479 97.530903 86.463465 C 97.73796 66.512142 114.07954 50.17056 134.03086 49.963505 C 153.98219 49.756347 169.98798 65.762142 169.78082 85.713465" stroke="black" stroke-linecap="round" stroke-linejoin="round" stroke-width="1" stroke-dasharray="20,5,4,5"/><circle cx="116.86206" cy="68.98878" r="3.2837174" fill="black"/><circle cx="116.86206" cy="68.98878" r="3.2837174" stroke="black" stroke-linecap="round" stroke-linejoin="round" stroke-width="1"/><circle cx="144.10754" cy="106.797164" r="3.2837174" fill="white"/><circle cx="144.10754" cy="106.797164" r="3.2837174" stroke="#7c7c7c" stroke-linecap="round" stroke-linejoin="round" stroke-width="1"/><circle cx="133.52676" cy="83.436815" r="3.2837174" fill="white"/><circle cx="133.52676" cy="83.436815" r="3.2837174" stroke="#7c7c7c" stroke-linecap="round" stroke-linejoin="round" stroke-width="1"/><circle cx="144.88417" cy="62.88702" r="3.2837174" fill="white"/><circle cx="144.88417" cy="62.88702" r="3.2837174" stroke="#7c7c7c" stroke-linecap="round" stroke-linejoin="round" stroke-width="1"/><line x1="143.05364" y1="66.199147" x2="138.21124" y2="74.96087" marker-end="url(#FilledArrow_Marker)" stroke="black" stroke-linecap="round" stroke-linejoin="round" stroke-width="1"/><line x1="130.667865" y1="80.95819" x2="124.17883" y2="75.332287" marker-end="url(#FilledArrow_Marker)" stroke="black" stroke-linecap="round" stroke-linejoin="round" stroke-width="1"/><circle cx="117.57316" cy="99.390417" r="3.2837174" fill="black"/><circle cx="117.57316" cy="99.390417" r="3.2837174" stroke="black" stroke-linecap="round" stroke-linejoin="round" stroke-width="1"/><circle cx="152.9722" cy="87.325904" r="3.2837174" fill="black"/><circle cx="152.9722" cy="87.325904" r="3.2837174" stroke="black" stroke-linecap="round" stroke-linejoin="round" stroke-width="1"/><line x1="121.21836" y1="100.40793" x2="134.779585" y2="104.19338" marker-end="url(#FilledArrow_Marker)" stroke="black" stroke-linecap="round" stroke-linejoin="round" stroke-width="1"/><line x1="120.24865" y1="96.71493" x2="126.67935" y2="90.284246" marker-end="url(#FilledArrow_Marker)" stroke="black" stroke-linecap="round" stroke-linejoin="round" stroke-width="1"/></g></g></svg>
