<?xml version="1.0"?>
<!DOCTYPE svg PUBLIC "-//W3C//DTD SVG 1.1//EN" "http://www.w3.org/Graphics/SVG/1.1/DTD/svg11.dtd">
<svg xmlns="http://www.w3.org/2000/svg" xmlns:xl="http://www.w3.org/1999/xlink" version="1.1" viewBox="311.43336 35.43336 140.13328 148.13328" width="140.13328pt" height="148.13328pt"><metadata xmlns:dc="http://purl.org/dc/elements/1.1/"><dc:date>2015-06-24 12:28Z</dc:date><!-- Produced by OmniGraffle Professional 5.4.4 --></metadata><defs><marker orient="auto" overflow="visible" markerUnits="strokeWidth" id="FilledArrow_Marker" viewBox="-1 -3 6 6" markerWidth="6" markerHeight="6" color="black"><g><path d="M 4 0 L 0 -1.5 L 0 1.5 Z" fill="currentColor" stroke="currentColor" stroke-width="1"/></g></marker></defs><g stroke="none" stroke-opacity="1" stroke-dasharray="none" fill="none" fill-opacity="1"><title>Canvas 5</title><g><title>Layer 1</title><path d="M 334.40755 127.015745 C 337.64816 99.408 361.4328 69.272343 387.53207 59.705847 C 413.63135 50.13921 432.16183 64.764446 428.9211 92.37224 C 425.68048 119.97999 401.89583 150.115645 375.79657 159.68214 C 349.69729 169.24878 331.1668 154.62354 334.40755 127.015745" fill="white"/><path d="M 334.40755 127.015745 C 337.64816 99.408 361.4328 69.272343 387.53207 59.705847 C 413.63135 50.13921 432.16183 64.764446 428.9211 92.37224 C 425.68048 119.97999 401.89583 150.115645 375.79657 159.68214 C 349.69729 169.24878 331.1668 154.62354 334.40755 127.015745" stroke="black" stroke-linecap="round" stroke-linejoin="round" stroke-width="1" stroke-dasharray="20,5,4,5"/><circle cx="344.28368" cy="125.7191" r="3.2837174" fill="black"/><circle cx="344.28368" cy="125.7191" r="3.2837174" stroke="black" stroke-linecap="round" stroke-linejoin="round" stroke-width="1"/><circle cx="356.30198" cy="150.16994" r="3.2837174" fill="white"/><circle cx="356.30198" cy="150.16994" r="3.2837174" stroke="#7c7c7c" stroke-linecap="round" stroke-linejoin="round" stroke-width="1"/><circle cx="382.33712" cy="150.16994" r="3.2837174" fill="white"/><circle cx="382.33712" cy="150.16994" r="3.2837174" stroke="#7c7c7c" stroke-linecap="round" stroke-linejoin="round" stroke-width="1"/><line x1="378.5534" y1="150.16998" x2="365.98569" y2="150.1701" marker-end="url(#FilledArrow_Marker)" stroke="black" stroke-linecap="round" stroke-linejoin="round" stroke-width="1"/><circle cx="354.18116" cy="103.620776" r="3.2837174" fill="white"/><circle cx="354.18116" cy="103.620776" r="3.2837174" stroke="#7c7c7c" stroke-linecap="round" stroke-linejoin="round" stroke-width="1"/><circle cx="380.2163" cy="103.620776" r="3.2837174" fill="white"/><circle cx="380.2163" cy="103.620776" r="3.2837174" stroke="#7c7c7c" stroke-linecap="round" stroke-linejoin="round" stroke-width="1"/><line x1="376.43259" y1="103.620815" x2="363.86487" y2="103.62094" marker-end="url(#FilledArrow_Marker)" stroke="black" stroke-linecap="round" stroke-linejoin="round" stroke-width="1"/><line x1="352.63722" y1="107.07613" x2="348.25402" y2="116.8858" marker-end="url(#FilledArrow_Marker)" stroke="black" stroke-linecap="round" stroke-linejoin="round" stroke-width="1"/><circle cx="368.78371" cy="125.7191" r="3.2837174" fill="black"/><circle cx="368.78371" cy="125.7191" r="3.2837174" stroke="black" stroke-linecap="round" stroke-linejoin="round" stroke-width="1"/><circle cx="399.78371" cy="125.7191" r="3.2837174" fill="black"/><circle cx="399.78371" cy="125.7191" r="3.2837174" stroke="black" stroke-linecap="round" stroke-linejoin="round" stroke-width="1"/><line x1="396" y1="125.71912" x2="378.46743" y2="125.7192" marker-end="url(#FilledArrow_Marker)" stroke="black" stroke-linecap="round" stroke-linejoin="round" stroke-width="1"/><line x1="370.62004" y1="129.0283" x2="377.6493" y2="141.695575" marker-end="url(#FilledArrow_Marker)" stroke="black" stroke-linecap="round" stroke-linejoin="round" stroke-width="1"/><line x1="366.69904" y1="122.56069" x2="359.52762" y2="111.695525" marker-end="url(#FilledArrow_Marker)" stroke="black" stroke-linecap="round" stroke-linejoin="round" stroke-width="1"/><circle cx="379.86206" cy="72.92417" r="3.2837174" fill="black"/><circle cx="379.86206" cy="72.92417" r="3.2837174" stroke="black" stroke-linecap="round" stroke-linejoin="round" stroke-width="1"/><circle cx="407.10754" cy="110.73255" r="3.2837174" fill="white"/><circle cx="407.10754" cy="110.73255" r="3.2837174" stroke="#7c7c7c" stroke-linecap="round" stroke-linejoin="round" stroke-width="1"/><circle cx="396.52676" cy="87.3722" r="3.2837174" fill="white"/><circle cx="396.52676" cy="87.3722" r="3.2837174" stroke="#7c7c7c" stroke-linecap="round" stroke-linejoin="round" stroke-width="1"/><circle cx="407.88417" cy="66.822405" r="3.2837174" fill="white"/><circle cx="407.88417" cy="66.822405" r="3.2837174" stroke="#7c7c7c" stroke-linecap="round" stroke-linejoin="round" stroke-width="1"/><line x1="406.05363" y1="70.13453" x2="401.21123" y2="78.89625" marker-end="url(#FilledArrow_Marker)" stroke="black" stroke-linecap="round" stroke-linejoin="round" stroke-width="1"/><line x1="393.66786" y1="84.89358" x2="387.17882" y2="79.267687" marker-end="url(#FilledArrow_Marker)" stroke="black" stroke-linecap="round" stroke-linejoin="round" stroke-width="1"/><circle cx="380.57316" cy="103.325803" r="3.2837174" fill="black"/><circle cx="380.57316" cy="103.325803" r="3.2837174" stroke="black" stroke-linecap="round" stroke-linejoin="round" stroke-width="1"/><circle cx="415.9722" cy="91.26129" r="3.2837174" fill="black"/><circle cx="415.9722" cy="91.26129" r="3.2837174" stroke="black" stroke-linecap="round" stroke-linejoin="round" stroke-width="1"/><line x1="384.21836" y1="104.343315" x2="397.77958" y2="108.128766" marker-end="url(#FilledArrow_Marker)" stroke="black" stroke-linecap="round" stroke-linejoin="round" stroke-width="1"/><line x1="383.24865" y1="100.650314" x2="389.67934" y2="94.21962" marker-end="url(#FilledArrow_Marker)" stroke="black" stroke-linecap="round" stroke-linejoin="round" stroke-width="1"/></g></g></svg>
