<?xml version="1.0"?>
<!DOCTYPE svg PUBLIC "-//W3C//DTD SVG 1.1//EN" "http://www.w3.org/Graphics/SVG/1.1/DTD/svg11.dtd">
<svg xmlns="http://www.w3.org/2000/svg" xmlns:xl="http://www.w3.org/1999/xlink" version="1.1" viewBox="62.43336 32.43336 125.13328 131.13328" width="125.13328pt" height="131.13328pt"><metadata xmlns:dc="http://purl.org/dc/elements/1.1/"><dc:date>2015-06-24 12:28Z</dc:date><!-- Produced by OmniGraffle Professional 5.4.4 --></metadata><defs><marker orient="auto" overflow="visible" markerUnits="strokeWidth" id="FilledArrow_Marker" viewBox="-1 -3 6 6" markerWidth="6" markerHeight="6" color="black"><g><path d="M 4 0 L 0 -1.5 L 0 1.5 Z" fill="currentColor" stroke="currentColor" stroke-width="1"/></g></marker></defs><g stroke="none" stroke-opacity="1" stroke-dasharray="none" fill="none" fill-opacity="1"><title>Canvas 5</title><g><title>Layer 1</title><ellipse cx="106" cy="122" rx="40.500065" ry="38.50006" fill="white"/><path d="M 134.63779 94.77642 C 150.4541 109.81159 150.4541 134.18841 134.63779 149.22358 C 118.82157 164.25883 93.17843 164.25883 77.362207 149.22358 C 61.545904 134.18841 61.545904 109.81159 77.362207 94.77642 C 93.17843 79.74117 118.82157 79.74117 134.63779 94.77642" stroke="black" stroke-linecap="round" stroke-linejoin="round" stroke-width="1" stroke-dasharray="20,5,4,5"/><circle cx="81.283684" cy="121.78371" r="3.2837174" fill="black"/><circle cx="81.283684" cy="121.78371" r="3.2837174" stroke="black" stroke-linecap="round" stroke-linejoin="round" stroke-width="1"/><circle cx="93.301975" cy="146.23455" r="3.2837174" fill="white"/><circle cx="93.301975" cy="146.23455" r="3.2837174" stroke="#7c7c7c" stroke-linecap="round" stroke-linejoin="round" stroke-width="1"/><circle cx="119.33712" cy="146.23455" r="3.2837174" fill="white"/><circle cx="119.33712" cy="146.23455" r="3.2837174" stroke="#7c7c7c" stroke-linecap="round" stroke-linejoin="round" stroke-width="1"/><line x1="115.55341" y1="146.23358" x2="102.985684" y2="146.23034" marker-end="url(#FilledArrow_Marker)" stroke="black" stroke-linecap="round" stroke-linejoin="round" stroke-width="1"/><circle cx="91.181156" cy="99.68539" r="3.2837174" fill="white"/><circle cx="91.181156" cy="99.68539" r="3.2837174" stroke="#7c7c7c" stroke-linecap="round" stroke-linejoin="round" stroke-width="1"/><circle cx="117.2163" cy="99.68539" r="3.2837174" fill="white"/><circle cx="117.2163" cy="99.68539" r="3.2837174" stroke="#7c7c7c" stroke-linecap="round" stroke-linejoin="round" stroke-width="1"/><line x1="113.43259" y1="99.6854" x2="100.86487" y2="99.6854" marker-end="url(#FilledArrow_Marker)" stroke="black" stroke-linecap="round" stroke-linejoin="round" stroke-width="1"/><line x1="89.63075" y1="103.137843" x2="85.22918" y2="112.939304" marker-end="url(#FilledArrow_Marker)" stroke="black" stroke-linecap="round" stroke-linejoin="round" stroke-width="1"/><circle cx="105.78371" cy="121.78371" r="3.2837174" fill="black"/><circle cx="105.78371" cy="121.78371" r="3.2837174" stroke="black" stroke-linecap="round" stroke-linejoin="round" stroke-width="1"/><circle cx="136.78371" cy="121.78371" r="3.2837174" fill="black"/><circle cx="136.78371" cy="121.78371" r="3.2837174" stroke="black" stroke-linecap="round" stroke-linejoin="round" stroke-width="1"/><line x1="133" y1="121.78328" x2="115.467424" y2="121.781276" marker-end="url(#FilledArrow_Marker)" stroke="black" stroke-linecap="round" stroke-linejoin="round" stroke-width="1"/><line x1="107.617426" y1="125.09436" x2="114.636696" y2="137.76717" marker-end="url(#FilledArrow_Marker)" stroke="black" stroke-linecap="round" stroke-linejoin="round" stroke-width="1"/><line x1="103.696" y1="118.62732" x2="96.5141" y2="107.7691" marker-end="url(#FilledArrow_Marker)" stroke="black" stroke-linecap="round" stroke-linejoin="round" stroke-width="1"/><path d="M 169.78082 85.713465 C 169.57377 105.66479 153.23219 122.00637 133.28086 122.213425 C 113.32954 122.42058 97.323745 106.41479 97.530903 86.463465 C 97.73796 66.512142 114.07954 50.17056 134.03086 49.963505 C 153.98219 49.756347 169.98798 65.762142 169.78082 85.713465" fill="white" fill-opacity=".30000001"/><path d="M 169.78082 85.713465 C 169.57377 105.66479 153.23219 122.00637 133.28086 122.213425 C 113.32954 122.42058 97.323745 106.41479 97.530903 86.463465 C 97.73796 66.512142 114.07954 50.17056 134.03086 49.963505 C 153.98219 49.756347 169.98798 65.762142 169.78082 85.713465" stroke="black" stroke-linecap="round" stroke-linejoin="round" stroke-width="1" stroke-dasharray="20,5,4,5"/><circle cx="116.86206" cy="68.98878" r="3.2837174" fill="black"/><circle cx="116.86206" cy="68.98878" r="3.2837174" stroke="black" stroke-linecap="round" stroke-linejoin="round" stroke-width="1"/><circle cx="144.10754" cy="106.797164" r="3.2837174" fill="white"/><circle cx="144.10754" cy="106.797164" r="3.2837174" stroke="#7c7c7c" stroke-linecap="round" stroke-linejoin="round" stroke-width="1"/><circle cx="133.52676" cy="83.436815" r="3.2837174" fill="white"/><circle cx="133.52676" cy="83.436815" r="3.2837174" stroke="#7c7c7c" stroke-linecap="round" stroke-linejoin="round" stroke-width="1"/><circle cx="144.88417" cy="62.88702" r="3.2837174" fill="white"/><circle cx="144.88417" cy="62.88702" r="3.2837174" stroke="#7c7c7c" stroke-linecap="round" stroke-linejoin="round" stroke-width="1"/><line x1="143.05364" y1="66.199147" x2="138.21124" y2="74.96087" marker-end="url(#FilledArrow_Marker)" stroke="black" stroke-linecap="round" stroke-linejoin="round" stroke-width="1"/><line x1="130.667865" y1="80.95819" x2="124.17883" y2="75.332287" marker-end="url(#FilledArrow_Marker)" stroke="black" stroke-linecap="round" stroke-linejoin="round" stroke-width="1"/><circle cx="117.57316" cy="99.390417" r="3.2837174" fill="black"/><circle cx="117.57316" cy="99.390417" r="3.2837174" stroke="black" stroke-linecap="round" stroke-linejoin="round" stroke-width="1"/><circle cx="152.9722" cy="87.325904" r="3.2837174" fill="black"/><circle cx="152.9722" cy="87.325904" r="3.2837174" stroke="black" stroke-linecap="round" stroke-linejoin="round" stroke-width="1"/><line x1="121.21836" y1="100.40793" x2="134.779585" y2="104.19338" marker-end="url(#FilledArrow_Marker)" stroke="black" stroke-linecap="round" stroke-linejoin="round" stroke-width="1"/><line x1="120.24865" y1="96.71493" x2="126.67935" y2="90.284246" marker-end="url(#FilledArrow_Marker)" stroke="black" stroke-linecap="round" stroke-linejoin="round" stroke-width="1"/></g></g></svg>
